<?xml version="1.0" encoding="utf-8"?>
<!-- Svg Vector Icons : http://www.onlinewebfonts.com/icon -->
<!DOCTYPE svg PUBLIC "-//W3C//DTD SVG 1.1//EN" "http://www.w3.org/Graphics/SVG/1.1/DTD/svg11.dtd">
<svg version="1.1" xmlns="http://www.w3.org/2000/svg" xmlns:xlink="http://www.w3.org/1999/xlink" x="0px" y="0px" viewBox="0 0 256 256" enable-background="new 0 0 256 256" xml:space="preserve">
<metadata> Svg Vector Icons : http://www.onlinewebfonts.com/icon </metadata>
    <g><g><path fill="red" d="M41.8,247.5L41.8,247.5c-11.3,0-21.8-6.2-27.4-16.2c-0.7-1.3-1.9-3.4-3-35c-0.6-18-1.1-41.7-1.3-66.8c-0.2-25.2-0.1-48.9,0.3-66.8C11,30.9,12.2,28.8,13,27.5l0.1-0.2c2.6-4.7,6.6-11.1,11.3-14.6C29.3,9,35.5,8.5,40.9,8.5c0.5,0,0.9,0,1.3,0c0.4,0,0.7,0,1.1,0c2,0,6.2,0,97.4,46.3c44.7,22.7,89,45.7,89.4,45.9l0.2,0.1c8.5,5,14.1,13.7,15.4,23.8l0,0.2c0,0.2,0.1,0.5,0.1,0.7c0.1,1.2,0.1,2.2,0.1,3.2v0.3v0.3c0,1,0,2-0.1,3.2c0,0.3-0.1,0.5-0.1,0.7l0,0.2c-1.3,10.1-6.9,18.8-15.4,23.8l-0.2,0.1L57.5,243.2C52.7,246,47.3,247.5,41.8,247.5z"/></g></g>
</svg>